# xmcd
#
# Track frame offsets: 
#        150
#        26540
#        48815
#        55918
#        79603
#        109118
#        131585
#        170315
#        185865
#        205953
#        220263
#        239275
#        263478
#        279415
#
# Disc length: 3832 seconds
#
# Revision: 1
# Processed by: cddbd v1.5.2PL0 Copyright (c) Steve Scherf et al.
# Submitted via: ExactAudioCopy v1.1
#
DISCID=c00ef60e
DTITLE=Charles Davis and Captured Moments - Strange Goodbyes
DYEAR=1995
DGENRE=Jazz
TTITLE0=I could have lied
TTITLE1=Blues for Saliba
TTITLE2=Migratory Birds
TTITLE3=Thin Eis
TTITLE4=Der Teich des Froschkönigs
TTITLE5=Memories Of A Kuckuck - Memories Of Tomorrow
TTITLE6=Le Conte D'Incroyable Amour
TTITLE7=Gorbi
TTITLE8=Four Over Six
TTITLE9=Miles Of Toskana
TTITLE10=Wüstenwind
TTITLE11=The Day The Frog Ate The Dog
TTITLE12=Maison Blanche
TTITLE13=Two Planets
EXTD=YEAR: 1995
EXTT0=
EXTT1=
EXTT2=
EXTT3=
EXTT4=
EXTT5=
EXTT6=
EXTT7=
EXTT8=
EXTT9=
EXTT10=
EXTT11=
EXTT12=
EXTT13=
PLAYORDER=
